<?xml version="1.0" encoding="utf-8"?>
<!-- Generator: Adobe Illustrator 13.0.0, SVG Export Plug-In . SVG Version: 6.00 Build 14948)  -->
<!DOCTYPE svg PUBLIC "-//W3C//DTD SVG 1.1//EN" "http://www.w3.org/Graphics/SVG/1.1/DTD/svg11.dtd" [
	<!ENTITY ns_flows "http://ns.adobe.com/Flows/1.0/">
	<!ENTITY ns_extend "http://ns.adobe.com/Extensibility/1.0/">
	<!ENTITY ns_ai "http://ns.adobe.com/AdobeIllustrator/10.0/">
	<!ENTITY ns_graphs "http://ns.adobe.com/Graphs/1.0/">
]>
<svg version="1.1" id="Exit" xmlns:x="&ns_extend;" xmlns:i="&ns_ai;" xmlns:graph="&ns_graphs;"
	 xmlns="http://www.w3.org/2000/svg" xmlns:xlink="http://www.w3.org/1999/xlink" xmlns:a="http://ns.adobe.com/AdobeSVGViewerExtensions/3.0/"
	 x="0px" y="0px" width="128px" height="128px" viewBox="-40.5 -40.5 128 128" enable-background="new -40.5 -40.5 128 128"
	 xml:space="preserve">
<path fill="none" stroke="#000000" stroke-width="12" stroke-linecap="round" d="M55.281-5.829
	c11.152,8.379,18.366,21.716,18.366,36.74c0,25.36-20.563,45.922-45.924,45.922c-25.364,0-45.925-20.562-45.925-45.922
	c0-15.026,7.215-28.365,18.369-36.744"/>
<line fill="none" stroke="#000000" stroke-width="12" stroke-linecap="round" stroke-linejoin="round" x1="26.167" y1="-21.833" x2="26.167" y2="12.833"/>
<path fill="none" stroke="#FF1200" stroke-width="12" stroke-linecap="round" d="M48.983-12.127
	c11.151,8.379,18.365,21.716,18.365,36.74c0,25.361-20.563,45.921-45.924,45.921c-25.363,0-45.924-20.56-45.924-45.921
	c0-15.026,7.215-28.366,18.369-36.744"/>
<line fill="none" stroke="#FF1200" stroke-width="12" stroke-linecap="round" stroke-linejoin="round" x1="20.625" y1="-27.167" x2="20.625" y2="7.5"/>
</svg>
