<?xml version="1.0" encoding="utf-8"?>
<!-- Generator: Adobe Illustrator 13.0.0, SVG Export Plug-In . SVG Version: 6.00 Build 14948)  -->
<!DOCTYPE svg PUBLIC "-//W3C//DTD SVG 1.1//EN" "http://www.w3.org/Graphics/SVG/1.1/DTD/svg11.dtd" [
	<!ENTITY ns_flows "http://ns.adobe.com/Flows/1.0/">
	<!ENTITY ns_extend "http://ns.adobe.com/Extensibility/1.0/">
	<!ENTITY ns_ai "http://ns.adobe.com/AdobeIllustrator/10.0/">
	<!ENTITY ns_graphs "http://ns.adobe.com/Graphs/1.0/">
]>
<svg version="1.1" id="Layer_78" xmlns:x="&ns_extend;" xmlns:i="&ns_ai;" xmlns:graph="&ns_graphs;"
	 xmlns="http://www.w3.org/2000/svg" xmlns:xlink="http://www.w3.org/1999/xlink" xmlns:a="http://ns.adobe.com/AdobeSVGViewerExtensions/3.0/"
	 x="0px" y="0px" width="128px" height="128px" viewBox="-40.5 -40.5 128 128" enable-background="new -40.5 -40.5 128 128"
	 xml:space="preserve">
<circle opacity="0.25" enable-background="new    " cx="28.834" cy="28.834" r="58.666"/>
<radialGradient id="SVGID_1_" cx="34" cy="2.5" r="81.5138" gradientUnits="userSpaceOnUse">
	<stop  offset="0.0516" style="stop-color:#FFFFFF"/>
	<stop  offset="0.6562" style="stop-color:#3B3B3B"/>
	<stop  offset="0.8596" style="stop-color:#141414"/>
	<stop  offset="1" style="stop-color:#3B3B3B"/>
	<a:midPointStop  offset="0.0516" style="stop-color:#FFFFFF"/>
	<a:midPointStop  offset="0.5" style="stop-color:#FFFFFF"/>
	<a:midPointStop  offset="0.6562" style="stop-color:#3B3B3B"/>
	<a:midPointStop  offset="0.5" style="stop-color:#3B3B3B"/>
	<a:midPointStop  offset="0.8596" style="stop-color:#141414"/>
	<a:midPointStop  offset="0.5" style="stop-color:#141414"/>
	<a:midPointStop  offset="1" style="stop-color:#3B3B3B"/>
</radialGradient>
<circle fill="url(#SVGID_1_)" cx="18.167" cy="18.167" r="58.666"/>
<polygon stroke="#000000" stroke-width="6" points="52.833,-32.5 68.833,-32.5 68.833,-16.5 84.833,-16.5 84.833,-0.5 68.833,-0.5 
	68.833,15.5 52.833,15.5 52.833,-0.5 36.833,-0.5 36.833,-16.5 52.833,-16.5 "/>
<polygon fill="#5FFF40" stroke="#008CB2" stroke-width="6" points="47.499,-37.833 63.499,-37.833 63.499,-21.833 79.499,-21.833 
	79.499,-5.833 63.499,-5.833 63.499,10.167 47.499,10.167 47.499,-5.833 31.499,-5.833 31.499,-21.833 47.499,-21.833 "/>
</svg>
