<?xml version="1.0" encoding="utf-8"?>
<!-- Generator: Adobe Illustrator 13.0.0, SVG Export Plug-In . SVG Version: 6.00 Build 14948)  -->
<!DOCTYPE svg PUBLIC "-//W3C//DTD SVG 1.1//EN" "http://www.w3.org/Graphics/SVG/1.1/DTD/svg11.dtd" [
	<!ENTITY ns_flows "http://ns.adobe.com/Flows/1.0/">
	<!ENTITY ns_extend "http://ns.adobe.com/Extensibility/1.0/">
	<!ENTITY ns_ai "http://ns.adobe.com/AdobeIllustrator/10.0/">
	<!ENTITY ns_graphs "http://ns.adobe.com/Graphs/1.0/">
]>
<svg version="1.1" id="Layer_60" xmlns:x="&ns_extend;" xmlns:i="&ns_ai;" xmlns:graph="&ns_graphs;"
	 xmlns="http://www.w3.org/2000/svg" xmlns:xlink="http://www.w3.org/1999/xlink" xmlns:a="http://ns.adobe.com/AdobeSVGViewerExtensions/3.0/"
	 x="0px" y="0px" width="128px" height="128px" viewBox="-40.5 -40.5 128 128" enable-background="new -40.5 -40.5 128 128"
	 xml:space="preserve">
<path id="path3243" stroke="#000000" stroke-width="6" d="M25.893-27.478c-1.178,0.082-2.329,0.266-3.489,0.398h-0.08l-2.775,15.192
	c-4.526,1.033-8.782,2.784-12.613,5.17l-12.451-8.988c-3.365,2.623-6.429,5.677-9.124,8.988l8.646,12.646
	c-2.624,4.023-4.596,8.617-5.71,13.442c0,0.022,0,0.078,0,0.08l-15.066,2.384c-0.276,2.259-0.397,4.592-0.397,6.922
	c0,1.908,0.054,3.789,0.237,5.65l15.073,2.702c1.07,5.252,3.107,10.15,5.948,14.478l-8.962,12.331
	c2.567,3.195,5.532,6.103,8.726,8.669l12.69-8.753c4.437,2.839,9.386,4.828,14.752,5.809l2.383,15.031
	c1.69,0.154,3.422,0.158,5.154,0.158c2.445,0,4.779-0.092,7.143-0.395l2.854-15.35c5.098-1.272,9.883-3.478,14.037-6.442
	l12.217,8.907c3.168-2.703,6.064-5.808,8.566-9.147L64.767,49.52c2.406-4.166,4.072-8.762,4.92-13.682l14.99-2.387
	c0.131-1.568,0.156-3.091,0.156-4.693c0-2.785-0.322-5.515-0.713-8.194l-15.229-2.782c-1.193-4.419-3.15-8.543-5.631-12.251
	l8.953-12.328c-2.783-3.407-5.949-6.553-9.438-9.227L49.849-7.116c-3.719-2.203-7.715-3.894-12.055-4.85l-2.381-15.113
	c-2.168-0.257-4.35-0.398-6.588-0.398c-0.602,0-1.223-0.018-1.825,0c-0.291,0.011-0.578-0.018-0.871,0
	C26.051-27.471,25.973-27.482,25.893-27.478z M27.956,11.177c0.289-0.015,0.58,0,0.875,0c9.387,0,17.053,7.688,17.053,17.102
	c0,9.416-7.666,17.022-17.053,17.022c-9.389,0-16.975-7.603-16.975-17.022C11.856,19.159,18.971,11.636,27.956,11.177z"/>
<linearGradient id="path3243_3_" gradientUnits="userSpaceOnUse" x1="-4.2954" y1="-14.186" x2="59.0838" y2="72.3355">
	<stop  offset="0" style="stop-color:#74A5D8"/>
	<stop  offset="0.5" style="stop-color:#E1F2F0"/>
	<stop  offset="0.75" style="stop-color:#72ABDC"/>
	<a:midPointStop  offset="0" style="stop-color:#74A5D8"/>
	<a:midPointStop  offset="0.5" style="stop-color:#74A5D8"/>
	<a:midPointStop  offset="0.5" style="stop-color:#E1F2F0"/>
	<a:midPointStop  offset="0.5" style="stop-color:#E1F2F0"/>
	<a:midPointStop  offset="0.75" style="stop-color:#72ABDC"/>
</linearGradient>
<path id="path3243_2_" fill="url(#path3243_3_)" stroke="#018BB1" stroke-width="6" d="M20.56-32.5
	c-1.179,0.082-2.329,0.266-3.489,0.398h-0.08L14.216-16.91c-4.526,1.033-8.782,2.784-12.613,5.17l-12.451-8.988
	c-3.365,2.623-6.429,5.677-9.124,8.988l8.646,12.646c-2.624,4.023-4.596,8.617-5.71,13.442c0,0.022,0,0.078,0,0.08l-15.066,2.384
	c-0.276,2.259-0.397,4.591-0.397,6.922c0,1.908,0.054,3.789,0.237,5.65l15.073,2.702c1.07,5.252,3.107,10.15,5.948,14.478
	l-8.962,12.331c2.567,3.195,5.532,6.103,8.726,8.669l12.69-8.753c4.437,2.839,9.386,4.828,14.752,5.809l2.383,15.031
	c1.69,0.154,3.422,0.158,5.154,0.158c2.445,0,4.78-0.092,7.143-0.395l2.853-15.35c5.099-1.272,9.883-3.478,14.038-6.442
	l12.217,8.907c3.168-2.703,6.063-5.808,8.565-9.147l-8.884-12.887c2.405-4.166,4.072-8.762,4.919-13.682l14.99-2.387
	c0.131-1.568,0.157-3.091,0.157-4.693c0-2.785-0.322-5.515-0.714-8.194l-15.228-2.782c-1.193-4.419-3.15-8.543-5.632-12.251
	l8.954-12.328c-2.783-3.407-5.949-6.553-9.438-9.227l-12.929,8.908c-3.719-2.203-7.714-3.894-12.055-4.85l-2.38-15.113
	c-2.168-0.257-4.35-0.398-6.588-0.398c-0.602,0-1.224-0.018-1.825,0c-0.291,0.011-0.578-0.018-0.871,0
	C20.718-32.493,20.639-32.504,20.56-32.5z M22.622,6.155c0.289-0.015,0.581,0,0.876,0c9.386,0,17.053,7.688,17.053,17.102
	c0,9.416-7.667,17.022-17.053,17.022c-9.39,0-16.976-7.603-16.976-17.022C6.522,14.137,13.638,6.613,22.622,6.155z"/>
<g id="path3243_1_">
	<linearGradient id="SVGID_1_" gradientUnits="userSpaceOnUse" x1="-2.2412" y1="-11.3726" x2="56.3356" y2="68.593">
		<stop  offset="0" style="stop-color:#74A5D8"/>
		<stop  offset="0.5" style="stop-color:#E1F2F0"/>
		<stop  offset="0.75" style="stop-color:#72ABDC"/>
		<a:midPointStop  offset="0" style="stop-color:#74A5D8"/>
		<a:midPointStop  offset="0.5" style="stop-color:#74A5D8"/>
		<a:midPointStop  offset="0.5" style="stop-color:#E1F2F0"/>
		<a:midPointStop  offset="0.5" style="stop-color:#E1F2F0"/>
		<a:midPointStop  offset="0.75" style="stop-color:#72ABDC"/>
	</linearGradient>
	<path fill="url(#SVGID_1_)" d="M23.502,75.811c-0.552,0-1.128,0-1.715-0.006l-1.873-11.811l-0.444-2.8l-2.787-0.508
		c-4.757-0.871-9.239-2.634-13.314-5.245l-2.24-1.433l-2.188,1.51l-10.172,7.016c-1.379-1.231-2.675-2.514-3.882-3.839l7.107-9.778
		l1.626-2.235l-1.518-2.311c-2.605-3.971-4.413-8.372-5.374-13.081l-0.541-2.661l-2.673-0.479l-11.98-2.149
		c-0.023-0.702-0.033-1.453-0.033-2.266c0-1.187,0.033-2.341,0.1-3.457l11.989-1.898l2.665-0.421l0.605-2.71
		c0.991-4.295,2.777-8.499,5.164-12.157l1.46-2.238l-1.507-2.207l-6.915-10.112c1.361-1.501,2.781-2.908,4.258-4.208l9.942,7.175
		l2.178,1.572l2.277-1.421c3.474-2.161,7.306-3.73,11.392-4.666l2.57-0.587l0.473-2.592l2.244-12.283
		c0.1-0.008,0.199-0.017,0.299-0.025h0.06c0.077,0,0.156-0.002,0.234-0.004h0.181h0.014l0.094,0.002l0.27,0.004l0.247-0.004
		c0.16-0.006,0.321-0.006,0.483-0.006l0.572,0.004l0.645,0.004c1.039,0,2.074,0.031,3.123,0.097l1.894,12.035l0.423,2.696
		l2.665,0.587c3.727,0.824,7.285,2.259,10.879,4.389l2.201,1.302l2.106-1.452l10.459-7.207c1.569,1.36,3.088,2.843,4.541,4.442
		l-7.092,9.766l-1.641,2.259l1.551,2.318c2.342,3.495,4.055,7.219,5.096,11.07l0.659,2.439l2.482,0.452l12.36,2.256
		c0.174,1.545,0.301,3.173,0.301,4.785c0,0.408-0.002,0.83-0.006,1.254l-11.77,1.875l-2.826,0.45l-0.487,2.82
		c-0.762,4.419-2.255,8.577-4.44,12.364l-1.266,2.188l1.436,2.082l7.207,10.452c-1.222,1.463-2.514,2.852-3.87,4.158l-9.588-6.988
		l-2.331-1.699l-2.35,1.676c-3.734,2.667-8.121,4.681-12.681,5.819l-2.495,0.622l-0.469,2.528l-2.3,12.375
		C26.115,75.778,24.877,75.811,23.502,75.811L23.502,75.811z M22.912,2.148c-0.164,0-0.328,0.004-0.49,0.013
		c-11.161,0.568-19.9,9.836-19.9,21.097c0,11.591,9.411,21.022,20.977,21.022c11.609,0,21.053-9.432,21.053-21.022
		c0-11.636-9.444-21.104-21.053-21.104l-0.23-0.002L22.912,2.148L22.912,2.148z"/>
	<path fill="none" stroke="#FFFFFF" stroke-width="3" d="M23.502,75.811c-0.552,0-1.128,0-1.715-0.006l-1.873-11.811l-0.444-2.8
		l-2.787-0.508c-4.757-0.871-9.239-2.634-13.314-5.245l-2.24-1.433l-2.188,1.51l-10.172,7.016c-1.379-1.231-2.675-2.514-3.882-3.839
		l7.107-9.778l1.626-2.235l-1.518-2.311c-2.605-3.971-4.413-8.372-5.374-13.081l-0.541-2.661l-2.673-0.479l-11.98-2.149
		c-0.023-0.702-0.033-1.453-0.033-2.266c0-1.187,0.033-2.341,0.1-3.457l11.989-1.898l2.665-0.421l0.605-2.71
		c0.991-4.295,2.777-8.499,5.164-12.157l1.46-2.238l-1.507-2.207l-6.915-10.112c1.361-1.501,2.781-2.908,4.258-4.208l9.942,7.175
		l2.178,1.572l2.277-1.421c3.474-2.161,7.306-3.73,11.392-4.666l2.57-0.587l0.473-2.592l2.244-12.283
		c0.1-0.008,0.199-0.017,0.299-0.025h0.06c0.077,0,0.156-0.002,0.234-0.004h0.181h0.014l0.094,0.002l0.27,0.004l0.247-0.004
		c0.16-0.006,0.321-0.006,0.483-0.006l0.572,0.004l0.645,0.004c1.039,0,2.074,0.031,3.123,0.097l1.894,12.035l0.423,2.696
		l2.665,0.587c3.727,0.824,7.285,2.259,10.879,4.389l2.201,1.302l2.106-1.452l10.459-7.207c1.569,1.36,3.088,2.843,4.541,4.442
		l-7.092,9.766l-1.641,2.259l1.551,2.318c2.342,3.495,4.055,7.219,5.096,11.07l0.659,2.439l2.482,0.452l12.36,2.256
		c0.174,1.545,0.301,3.173,0.301,4.785c0,0.408-0.002,0.83-0.006,1.254l-11.77,1.875l-2.826,0.45l-0.487,2.82
		c-0.762,4.419-2.255,8.577-4.44,12.364l-1.266,2.188l1.436,2.082l7.207,10.452c-1.222,1.463-2.514,2.852-3.87,4.158l-9.588-6.988
		l-2.331-1.699l-2.35,1.676c-3.734,2.667-8.121,4.681-12.681,5.819l-2.495,0.622l-0.469,2.528l-2.3,12.375
		C26.115,75.778,24.877,75.811,23.502,75.811L23.502,75.811z M22.912,2.148c-0.164,0-0.328,0.004-0.49,0.013
		c-11.161,0.568-19.9,9.836-19.9,21.097c0,11.591,9.411,21.022,20.977,21.022c11.609,0,21.053-9.432,21.053-21.022
		c0-11.636-9.444-21.104-21.053-21.104l-0.23-0.002L22.912,2.148L22.912,2.148z"/>
</g>
<path stroke="#000000" stroke-width="6" d="M76.063,2.04l-3.17-3.135l-9.053,8.502l-8.809,0.971l-7.369-6.729L48.21-6.58
	l9.873-9.327l-3.156-2.878C40.251-21.596,28.877-8.48,34.499,7.132l-45.526,48.816c-3.84,3.84-4.748,9.135-0.824,12.891
	c4.063,3.893,10.149,2.193,12.069,0l47.446-48.542C62.808,28.729,77.542,16.133,76.063,2.04z"/>
<linearGradient id="SVGID_2_" gradientUnits="userSpaceOnUse" x1="-0.5918" y1="1011.0713" x2="1.8634" y2="922.4467" gradientTransform="matrix(-0.8783 0 0 0.8783 26.6751 -821.3059)">
	<stop  offset="0" style="stop-color:#B6B6B7"/>
	<stop  offset="0.5" style="stop-color:#F3F3F3"/>
	<stop  offset="0.6761" style="stop-color:#FAFAFA"/>
	<stop  offset="0.8405" style="stop-color:#D8D8D8"/>
	<stop  offset="0.875" style="stop-color:#F3F3F3"/>
	<stop  offset="1" style="stop-color:#DCDBDB"/>
	<a:midPointStop  offset="0" style="stop-color:#B6B6B7"/>
	<a:midPointStop  offset="0.5" style="stop-color:#B6B6B7"/>
	<a:midPointStop  offset="0.5" style="stop-color:#F3F3F3"/>
	<a:midPointStop  offset="0.5" style="stop-color:#F3F3F3"/>
	<a:midPointStop  offset="0.6761" style="stop-color:#FAFAFA"/>
	<a:midPointStop  offset="0.5" style="stop-color:#FAFAFA"/>
	<a:midPointStop  offset="0.8405" style="stop-color:#D8D8D8"/>
	<a:midPointStop  offset="0.5" style="stop-color:#D8D8D8"/>
	<a:midPointStop  offset="0.875" style="stop-color:#F3F3F3"/>
	<a:midPointStop  offset="0.5" style="stop-color:#F3F3F3"/>
	<a:midPointStop  offset="1" style="stop-color:#DCDBDB"/>
</linearGradient>
<path fill="url(#SVGID_2_)" stroke="#878A85" stroke-width="6" d="M71.282-3.958l-3.17-3.135L59.06,1.409L50.251,2.38l-7.369-6.729
	l0.547-8.228l9.873-9.327l-3.156-2.878C35.47-27.593,24.096-14.478,29.717,1.135L-15.807,49.95c-3.84,3.84-4.749,9.135-0.824,12.891
	c4.063,3.893,10.148,2.193,12.068,0L42.882,14.3C58.026,22.731,72.759,10.136,71.282-3.958z"/>
<g>
	<path fill="none" stroke="#FFFFFF" stroke-width="3" d="M-10.706,61.165c-1.255,0-2.319-0.408-3.158-1.214
		c-0.865-0.828-1.292-1.723-1.302-2.734c-0.017-1.415,0.78-3.031,2.187-4.438l0.05-0.05l0.047-0.05L32.644,3.864l1.665-1.787
		l-0.826-2.296c-2.011-5.584-1.514-11.133,1.362-15.227c2.555-3.634,6.691-5.719,11.354-5.719c0.16,0,0.324,0.002,0.488,0.008
		l-6.005,5.671l-1.139,1.077l-0.106,1.563l-0.548,8.229l-0.126,1.923l1.422,1.298l7.371,6.729l1.336,1.219l1.799-0.199l8.809-0.971
		l1.326-0.145l0.973-0.916l5.545-5.205c-0.254,3.313-1.619,6.514-3.91,9.059c-2.813,3.125-6.588,4.843-10.625,4.843
		c-2.656,0-5.342-0.746-7.98-2.216l-2.672-1.486l-2.137,2.187l-47.444,48.54l-0.077,0.078l-0.072,0.083
		C-7.805,60.448-9.026,61.165-10.706,61.165L-10.706,61.165z"/>
</g>
</svg>
